<svg data-v-0dd9719b="" version="1.0" xmlns="http://www.w3.org/2000/svg" xmlns:xlink="http://www.w3.org/1999/xlink" width="100%" height="100%" viewBox="0 0 340.000000 250.000000" preserveAspectRatio="xMidYMid meet" color-interpolation-filters="sRGB" style="margin: auto;"> <rect data-v-0dd9719b="" x="0" y="0" width="100%" height="100%" fill="#fff" fill-opacity="1" class="background"></rect> <rect data-v-0dd9719b="" x="0" y="0" width="100%" height="100%" fill="url(#watermark)" fill-opacity="1" class="watermarklayer"></rect> <g data-v-0dd9719b="" fill="#333" class="icon-text-wrapper icon-svg-group iconsvg" transform="translate(48.40740966796875,96.14874839782715)"><g class="iconsvg-imagesvg" transform="translate(0,2.870473861694336)"><g><rect fill="#333" fill-opacity="0" stroke-width="2" x="0" y="0" width="60" height="51.96154845414393" class="image-rect"></rect> <svg x="0" y="0" width="60" height="51.96154845414393" filtersec="colorsb5616755109" class="image-svg-svg primary" style="overflow: visible;"><svg xmlns="http://www.w3.org/2000/svg" viewBox="0 0 115.4699935913086 100"><g fill-rule="evenodd"><path d="M88.47 31.82a5.89 5.89 0 0 0 .45-2.27 6 6 0 1 0-6.37 5.94L98.83 63.7l-21 36.3h8.77l20.62-35.71zM28 43.46a6 6 0 0 0 5.31-8.66L49.05 7.56H91L86.6 0H45.37L27.12 31.61A6 6 0 0 0 28 43.46zM62.76 76.19a6 6 0 0 0-4.88 2.55H25.32l-21-36.3L0 50l20.62 35.71H58a6 6 0 1 0 4.77-9.52z" fill="#00a2e9"></path><path d="M94.85 14.29h-37a6 6 0 1 0 0 7h32.3l21 36.3 4.32-7.59zM87.18 56.23a6 6 0 0 0-5.08 9.06L66.42 92.44H24.5l4.37 7.56H70.1l18.49-32a6 6 0 0 0-1.41-11.75zM25.66 69.75a6 6 0 1 0 6.89-5.88L16.64 36.3 37.6 0h-8.73L8.25 35.71 26.32 67a6 6 0 0 0-.66 2.75z" fill="#096594"></path></g></svg></svg> <!----></g></g> <g transform="translate(67,0)"><g data-gra="path-name" fill-rule="" class="tp-name iconsvg-namesvg" transform="translate(0,0)"><g transform="scale(1)"><g><path d="M23.31-29.88L33.66-29.88 33.66-31.5 23.31-31.5 23.31-29.88ZM24.16-23.4L32.8-23.4Q33.66-23.4 33.66-24.25L33.66-24.25 33.66-25.02 23.31-25.02 23.31-24.25Q23.31-23.4 24.16-23.4L24.16-23.4ZM17.19-36.77L40.09-36.77 40.09-21.06Q40.09-18.13 37.17-18.13L37.17-18.13 20.11-18.13Q17.19-18.13 17.19-21.06L17.19-21.06 17.19-36.77ZM13.54-35.23L13.54-35.23Q15.93-33.44 14.04-30.82L14.04-30.82Q12.2-28.21 10.04-30.2L10.04-30.2Q9.58-30.51 6.48-31.95L6.48-31.95Q3.87-33.25 5.63-35.59 7.38-37.93 10.04-36.77L10.04-36.77Q13.05-35.55 13.54-35.23ZM10.48-22.86L10.48-22.86Q13-21.42 11.25-18.77L11.25-18.77Q9.49-16.16 7.2-17.95L7.2-17.95Q6.71-18.36 3.65-19.71L3.65-19.71Q0.99-21.02 2.61-23.36L2.61-23.36Q4.27-25.74 7.02-24.66L7.02-24.66Q9.76-23.71 10.48-22.86ZM9-14.67L9-14.67 11.65-12.55Q13.95-10.75 12.82-8.1L12.82-8.1Q10.62-3.01 8.59 0.67L8.59 0.67Q7.29 3.28 4.5 1.3L4.5 1.3Q1.71-0.63 3.19-3.15L3.19-3.15Q5.67-7.06 9-14.67ZM23.04-10.66L21.55-10.66 21.55-2.65 23.04-2.65 23.04-10.66ZM29.25-2.65L29.25-10.66 27.77-10.66 27.77-2.65 29.25-2.65ZM35.5-2.65L35.5-10.66 34.02-10.66 34.02-2.65 35.5-2.65ZM41.67-16.11L41.67-2.65 43.96-2.65 43.96 0.04Q43.96 2.97 41.04 2.97L41.04 2.97 15.48 2.97Q12.55 2.97 12.55 0.04L12.55 0.04 12.55-2.65 15.75-2.65 15.75-16.11 41.67-16.11ZM80.01-19.84L80.01-37.84 86.58-37.84 86.58 0.94Q86.58 3.87 83.3 3.87 80.01 3.87 80.01 0.94L80.01 0.94 80.01-15.03 78.62-14.22Q76.05-12.82 75.51-15.79L75.51-15.79Q75.51-15.84 73.71-20.43L73.71-20.43 73.71-1.57Q73.71 1.35 70.52 1.35 67.32 1.35 67.32-1.57L67.32-1.57 67.32-14.54 65.47-13.63Q62.82-12.38 62.41-15.3L62.41-15.3Q62.14-18 61.29-19.35L61.29-19.35Q60.84-7.6 56.16-0.81L56.16-0.81Q54.18 2.02 53.64 2.52L53.64 2.52Q51.34 4.27 49.55 1.98L49.55 1.98 49.14 1.53 48.73 1.13Q46.62-0.9 48.73-2.92L48.73-2.92Q52.7-5.67 54.27-14.4L54.27-14.4 52.92-13.72Q50.27-12.51 49.77-15.43L49.77-15.43Q49.63-16.96 47.97-21.78L47.97-21.78Q47.07-24.52 49.59-25.65L49.59-25.65Q52.16-26.77 53.19-23.98L53.19-23.98Q53.69-22.86 54.81-19.08L54.81-19.08Q54.9-21.87 54.9-23.22L54.9-23.22 54.9-37.71 61.38-37.71 61.38-25.15 64.66-26.64Q66.15-23.18 67.32-19.26L67.32-19.26 67.32-36.72 73.71-36.72 73.71-25.29 76.81-26.91Q78.66-23.4 80.01-19.84L80.01-19.84ZM126.85-20.7L126.85-20.7 121-20.7Q116.55-20.7 115.02-22.14L115.02-22.14Q113.53-23.63 113.53-27.68L113.53-27.68 113.53-38.48 120.02-38.48 120.02-34.83 132.03-34.83 132.03-32.67Q132.03-29.74 129.1-29.74L129.1-29.74 120.02-29.74 120.02-27.72Q120.02-26.59 120.33-26.32L120.33-26.32Q120.69-26.05 121.95-26.05L121.95-26.05 126.22-26.05Q127.22-26.05 127.53-26.59L127.53-26.59Q127.89-27.18 128.03-29.07L128.03-29.07 130.91-27.95Q133.65-26.95 132.57-24.25L132.57-24.25 131.63-22Q130.19-20.7 126.85-20.7ZM124.52 1.53L119.66-1.21Q117.09-2.61 119.7-4L119.7-4Q122.35-5.44 125.01-4.18L125.01-4.18 129.74-1.57Q132.3-0.14 129.6 1.48L129.6 1.48Q126.94 3.15 124.52 1.53L124.52 1.53ZM109.31-1.89L109.31-1.89 109.31-5.71Q104.4-5.31 101.3-4.77L101.3-4.77Q104.04-3.73 103.86-1.93L103.86-1.93Q104.08-1.17 104.85-1.26L104.85-1.26 108.41-1.21Q109.31-1.21 109.31-1.89ZM112.81-10.71L117.9-11.07Q120.78-11.25 121.86-13.23L121.86-13.23Q122.31-13.68 121.72-13.99L121.72-13.99Q124.42-15.12 126.81-13.46L126.81-13.46Q130.77-9.58 131.67-8.01L131.67-8.01Q133.47-5.71 130.55-4.46L130.55-4.46Q127.66-3.24 125.95-5.58L125.95-5.58Q126.9-4.5 124.83-6.93L124.83-6.93 115.92-6.25 115.92-1.67Q115.92 0.54 115.33 1.67 114.75 2.79 112.86 3.51L112.86 3.51Q110.97 4.27 108.45 4.27L108.45 4.27Q105.53 4.27 104.72 1.48L104.72 1.48Q104.27-0.58 103.72-0.49L103.72-0.49Q100.26 1.75 99.09 2.21L99.09 2.21Q96.44 3.38 94.64 1.75L94.64 1.75Q93.96 1.35 94.77 1.3L94.77 1.3Q94.32-1.53 97.61-3.19L97.61-3.19Q100.89-4.91 98.59-4.63L98.59-4.63Q95.76-3.92 94.95-6.66L94.95-6.66Q94.19-9.4 97.11-9.99L97.11-9.99Q98.19-9.9 106.16-13.32L106.16-13.32Q98.95-12.69 100.31-12.64L100.31-12.64Q97.42-12.11 96.61-14.63L96.61-14.63Q95.85-17.19 98.64-17.95L98.64-17.95 99.81-18.31Q103.91-19.71 107.64-21.78L107.64-21.78Q101.52-20.88 94.68-19.93L94.68-19.93Q91.8-19.57 91.53-22.45 91.26-25.33 93.92-25.56L93.92-25.56 93.92-35.14 99.67-35.14 99.67-26.14 101.61-26.32 101.61-38.48 107.86-38.48 107.86-34.83 112.36-34.83 112.36-32.67Q112.36-29.74 109.44-29.74L109.44-29.74 107.86-29.74 107.86-27 112.59-27.49 112.72-23.31Q112.72-22.5 111.91-22.36L111.91-22.36 112.59-21.78Q114.75-19.84 112.09-18.59L112.09-18.59 111.11-18.09 116.55-18.45Q118.39-19.53 119.97-20.56L119.97-20.56 121.95-18.22Q123.8-16.02 121.23-14.58L121.23-14.58Q118.53-12.96 112.81-10.71L112.81-10.71ZM152.73-31.14Q152.73-28.93 149.53-28.93 146.34-28.93 146.34-31.14L146.34-31.14 140.04-31.14Q137.12-31.14 137.12-34.06L137.12-34.06 137.12-36.45 146.34-36.45 146.34-38.48 152.73-38.48 152.73-36.45 156.78-36.45 156.78-34.06Q156.78-31.14 153.85-31.14L153.85-31.14 152.73-31.14ZM155.07-9.22L152.55-9.22 151.43-6.71 153.31-5.76 155.07-9.22ZM171.18-20.43L171.18-20.43 173.88-19.75Q176.72-19.13 175.77-16.38L175.77-16.38Q174.42-11.65 170.41-5.54L170.41-5.54Q171.63-1.67 172.66-1.67L172.66-1.67Q173.75-1.67 173.93-8.28L173.93-8.28 176.26-6.79Q178.74-5.22 178.02-2.38L178.02-2.38 176.76 2.25Q175.28 4.18 172.08 4.18 168.88 4.18 166.45-0.4L166.45-0.4Q164.43 1.84 164.61 1.53L164.61 1.53Q162.41 3.42 160.43 1.26L160.43 1.26Q159.44 0 159.07 0L159.07 0Q157.09 1.71 154.53-0.04L154.53-0.04Q151.47 2.21 149.44 2.75L149.44 2.75Q146.7 3.69 145.17 1.62L145.17 1.62Q143.69-0.4 146.56-1.21L146.56-1.21Q147.1-1.3 149.76-2.83L149.76-2.83Q147.47-4.09 148-3.73L148-3.73Q145.35-5.04 146.75-7.65L146.75-7.65 147.47-9.22Q145.66-9.22 145.66-11.03L145.66-11.03 145.66-13.46 149.22-13.46 150.03-15.88 148.72-15.88Q145.8-15.88 145.8-18.81L145.8-18.81 145.8-20.43 160.83-20.43 160.83-18.81Q160.83-15.88 157.91-15.88L157.91-15.88 151.02-15.88 152.82-15.62Q154.8-15.34 154.17-13.46L154.17-13.46 155.34-13.46 155.34-14.63 160.38-14.63 160.38-13.46 162.09-13.46 162.09-11.07Q162.09-9.22 160.25-9.22L160.25-9.22 157.86-3.28 159.16-2.48Q159.88-2.07 160.47-2.65L160.47-2.65 164.16-6.48Q162.5-12.64 161.78-21.69L161.78-21.69 145.03-21.69 145.03-18.09Q145.03-3.1 142.16 1.53L142.16 1.53Q141.07 4.23 138.65 2.11L138.65 2.11 138.51 2.02Q136.03 0.4 137.07-2.34L137.07-2.34Q139-5.35 139-18.13L139-18.13 139-27.13 161.5-27.13 161.46-28.26 167.49-28.26 167.49-27.13 169.65-27.13Q170.5-27.13 169.83-27.63L169.83-27.63Q168.62-28.62 169.78-29.61L169.78-29.61 171.54-31.14 168.34-31.14Q168.34-28.93 165.15-28.93 161.95-28.93 161.95-31.14L161.95-31.14 161.1-31.14Q158.18-31.14 158.18-34.06L158.18-34.06 158.18-36.45 161.95-36.45 161.95-38.48 168.34-38.48 168.34-36.45 177.84-36.45 177.84-34.06Q177.84-31.14 174.91-31.14L174.91-31.14 173.43-31.14Q175.77-29.47 175.19-29.79L175.19-29.79Q176.67-28.48 175.19-27.13L175.19-27.13 177.8-27.13 177.8-24.61Q177.8-21.69 174.87-21.69L174.87-21.69 167.72-21.69 168.62-13.63Q170.14-16.79 171.18-20.43Z" transform="translate(-1.996822476387024, 38.47999954223633)"></path></g> <!----> <!----> <!----> <!----> <!----> <!----> <!----></g></g> <g data-gra="path-slogan" fill-rule="" class="tp-slogan iconsvg-slogansvg" fill="#333" transform="translate(39.60259246826172,48.75)"><!----> <!----> <g transform="scale(1, 1)"><g transform="scale(1)"><path d="M5.67-7.13L5.63-7.13L3.66 0L2.44 0L0.19-8.58L1.41-8.58L3.05-1.59L3.09-1.59L5.02-8.58L6.28-8.58L8.20-1.59L8.25-1.59L9.84-8.58L11.11-8.58L8.86 0L7.64 0L5.67-7.13ZM13.50-1.03L18.66-1.03L18.66 0L12.33 0L12.33-8.58L18.56-8.58L18.56-7.59L13.50-7.59L13.50-4.92L18.19-4.92L18.19-3.89L13.50-3.89L13.50-1.03ZM21.56-8.58L25.88-1.64L25.88-8.58L27-8.58L27 0L25.69 0L21.33-6.94L21.28-6.94L21.28 0L20.16 0L20.16-8.58L21.56-8.58ZM29.63-1.03L34.92-1.03L34.92 0L28.17 0L28.17-0.94L33.42-7.59L28.55-7.59L28.55-8.58L34.92-8.58L34.92-7.59L29.63-1.03ZM37.22-5.06L41.72-5.06L41.72-8.58L42.89-8.58L42.89 0L41.72 0L41.72-3.98L37.22-3.98L37.22 0L36.05 0L36.05-8.58L37.22-8.58L37.22-5.06ZM51.47-4.27L51.47-4.27Q51.28-7.64 48.47-7.83L48.47-7.83Q45.61-7.69 45.47-4.27L45.47-4.27Q45.61-0.94 48.47-0.80L48.47-0.80Q51.28-0.98 51.47-4.27ZM52.64-4.27L52.64-4.27Q52.36 0 48.47 0.14L48.47 0.14Q44.53 0 44.25-4.27L44.25-4.27Q44.48-8.72 48.47-8.81L48.47-8.81Q52.36-8.67 52.64-4.27ZM59.67-3.19L59.67-8.58L60.84-8.58L60.84-3.05Q60.70 0.05 57.33 0.14L57.33 0.14Q54.19 0.05 54.05-2.86L54.05-2.86L54.05-8.58L55.22-8.58L55.22-3.19Q55.27-0.84 57.38-0.80L57.38-0.80Q59.67-0.84 59.67-3.19L59.67-3.19ZM66.80-1.03L72.09-1.03L72.09 0L65.34 0L65.34-0.94L70.59-7.59L65.72-7.59L65.72-8.58L72.09-8.58L72.09-7.59L66.80-1.03ZM73.41-8.58L74.58-8.58L74.58 0L73.41 0L73.41-8.58ZM81.33-7.13L81.28-7.13L79.31 0L78.09 0L75.84-8.58L77.06-8.58L78.70-1.59L78.75-1.59L80.67-8.58L81.94-8.58L83.86-1.59L83.91-1.59L85.50-8.58L86.77-8.58L84.52 0L83.30 0L81.33-7.13ZM89.16-1.03L94.31-1.03L94.31 0L87.98 0L87.98-8.58L94.22-8.58L94.22-7.59L89.16-7.59L89.16-4.92L93.84-4.92L93.84-3.89L89.16-3.89L89.16-1.03ZM96-8.58L97.17-8.58L97.17 0L96 0L96-8.58Z" transform="translate(-0.1875, 8.8125)"></path></g></g></g></g></g><defs v-gra="od"></defs></svg>